<?xml version="1.0" encoding="UTF-8"?>
<svg width="50px" height="50px" viewBox="0 0 50 50" version="1.1" xmlns="http://www.w3.org/2000/svg" xmlns:xlink="http://www.w3.org/1999/xlink">
    <title>S_forecast</title>
    <g id="页面-1" stroke="none" stroke-width="1" fill="none" fill-rule="evenodd">
        <g id="S_forecast">
            <circle id="椭圆形" fill-opacity="0.18" fill="#51B281" cx="25" cy="25" r="25"></circle>
            <g id="技术需求预测" transform="translate(10.000000, 10.000000)" fill-rule="nonzero">
                <rect id="矩形" fill="#000000" opacity="0" x="0" y="0" width="30" height="30"></rect>
                <path d="M5.34375,2.5546875 L24.6503906,2.5546875 C25.1953125,2.58105469 25.7402344,2.72167969 26.2148437,2.99414062 C26.8564453,3.3515625 27.375,3.92578125 27.6679687,4.59667969 C27.84375,4.99511719 27.9404297,5.42871094 27.9521484,5.86523438 L27.9521484,19.4472656 C27.9580078,19.6962891 27.9492187,19.9423828 27.9052734,20.1884766 C27.7646484,21.0205078 27.2958984,21.7910156 26.625,22.3007812 C26.0390625,22.7548828 25.3007812,23.0039062 24.5595703,23.0068359 L15.6855469,23.0068359 L15.6855469,26.0683594 L23.5957031,26.0683594 C23.8125,26.0654297 24.0322266,26.1679688 24.1582031,26.3466797 C24.3339844,26.5751953 24.3339844,26.9179688 24.1640625,27.1523438 C24.0439453,27.3222656 23.8447266,27.4248047 23.6367188,27.4423828 L6.38671875,27.4423828 C6.24316406,27.4335938 6.09667969,27.3896484 5.98242187,27.2988281 C5.78027344,27.1494141 5.67773437,26.8828125 5.72460937,26.6367188 C5.76269531,26.4082031 5.92382812,26.2060547 6.13769531,26.1210938 C6.28417969,26.0595703 6.4453125,26.0683594 6.59765625,26.0683594 L14.3173828,26.0683594 L14.3173828,23.0068359 L5.45800781,23.0068359 C4.96582031,23.0039062 4.4765625,22.9013672 4.03125,22.6933594 C3.26660156,22.3417969 2.64257812,21.6972656 2.31738281,20.9208984 C2.14746094,20.53125 2.07128906,20.1123047 2.04492188,19.6904297 L2.04492188,5.90039062 C2.06835938,5.36425781 2.19433594,4.828125 2.45507812,4.35351563 C2.88574219,3.54785156 3.65332031,2.92675781 4.53222656,2.68359375 C4.79589844,2.60742188 5.07128906,2.57519531 5.34375,2.5546875 M18.2138672,6.30175781 C18.0146484,6.50097656 17.9677734,6.82617188 18.0908203,7.078125 C18.1962891,7.30371094 18.4394531,7.45898438 18.6884766,7.46191406 L20.765625,7.46191406 C18.7851562,9.44238281 16.8046875,11.4257813 14.8212891,13.40625 C13.9277344,12.5097656 13.0283203,11.6191406 12.1376953,10.7197266 C11.9296875,10.5351563 11.6044922,10.4970703 11.3613281,10.6318359 C11.2441406,10.6875 11.1679687,10.7900391 11.0771484,10.8808594 C9.515625,12.4453125 7.95117187,14.0097656 6.38671875,15.5742188 C6.31640625,15.6416016 6.24609375,15.7089844 6.20214844,15.796875 C6.06738281,16.0458984 6.10839844,16.3769531 6.30175781,16.5820313 C6.45996094,16.7578125 6.71777344,16.8369141 6.94921875,16.7871094 C7.08398437,16.7607422 7.20410156,16.6875 7.30371094,16.5908203 C8.765625,15.1289062 10.2275391,13.6669922 11.6894531,12.2080078 C12.5625,13.0810547 13.4384766,13.9511719 14.3085937,14.8300781 C14.5341797,15.0996094 14.9707031,15.1376953 15.2460937,14.9208984 C17.4023437,12.7617188 19.5615234,10.6083984 21.7177734,8.44921875 C21.7148437,9.12304688 21.7177734,9.79980469 21.7148437,10.4736328 C21.7148437,10.6494141 21.7851562,10.8222656 21.9082031,10.9482422 C22.1191406,11.1679688 22.4824219,11.2148438 22.7431641,11.0595703 C22.9482422,10.9423828 23.0830078,10.7109375 23.0800781,10.4736328 L23.0800781,6.98144531 C23.0800781,6.86425781 23.1005859,6.74707031 23.0683594,6.6328125 C23.015625,6.34570312 22.7519531,6.11132812 22.4619141,6.09667969 L18.6884766,6.09667969 C18.5097656,6.09667969 18.3369141,6.17578125 18.2138672,6.30175781 M21.0263672,13.0195313 C20.7304687,13.0898438 20.5136719,13.3798828 20.5166016,13.6816406 C20.5136719,15.2695313 20.5166016,16.8544922 20.5166016,18.4394531 C20.5166016,18.5712891 20.5371094,18.7060547 20.6044922,18.8232422 C20.7216797,19.0429688 20.9707031,19.1865234 21.2197266,19.171875 C21.5595703,19.1777344 21.8701172,18.8789062 21.8847656,18.5390625 L21.8847656,13.6552734 C21.8847656,13.5556641 21.8583984,13.4560547 21.8144531,13.3681641 C21.6767578,13.0869141 21.328125,12.9316406 21.0263672,13.0195313 M11.71875,14.0566406 C11.4375,14.1298828 11.2207031,14.4052734 11.2207031,14.6982422 L11.2207031,18.4921875 C11.2177734,18.6679688 11.2880859,18.8408203 11.4111328,18.9697266 C11.6220703,19.1953125 11.9882812,19.2451172 12.2519531,19.0839844 C12.4511719,18.9697266 12.5800781,18.75 12.5888672,18.5214844 L12.5888672,14.7216797 C12.5917969,14.6103516 12.5654297,14.5019531 12.5126953,14.4023438 C12.3720703,14.1181641 12.0234375,13.9658203 11.71875,14.0566406 M17.9179687,14.6894531 C17.6367187,14.765625 17.4257812,15.0322266 17.4199219,15.3251953 C17.4169922,16.3828125 17.4199219,17.4375 17.4199219,18.4951172 C17.4199219,18.7470703 17.5693359,18.9960938 17.7978516,19.1044922 C17.9326172,19.1748047 18.0908203,19.1894531 18.2373047,19.1630859 C18.4892578,19.1162109 18.703125,18.9169922 18.7646484,18.6679688 C18.7939453,18.5683594 18.7822266,18.4628906 18.7851562,18.3603516 L18.7851562,15.3251953 C18.7851562,15.2226563 18.7587891,15.1201172 18.7089844,15.0263672 C18.5683594,14.7480469 18.2167969,14.6015625 17.9179687,14.6894531 M14.859375,15.8027344 C14.5546875,15.8642578 14.3203125,16.1513672 14.3203125,16.4619141 C14.3203125,17.1533203 14.3173828,17.8417969 14.3203125,18.5332031 C14.3320312,18.8789063 14.6455078,19.1835938 14.9941406,19.1748047 C15.3427734,19.1923828 15.6650391,18.8935547 15.6826172,18.5449219 C15.6855469,17.8505859 15.6826172,17.1591797 15.6826172,16.4648438 C15.6855469,16.2363281 15.5595703,16.0136719 15.3662109,15.8935547 C15.2197266,15.796875 15.0322266,15.7675781 14.859375,15.8027344 M8.63671875,15.9550781 C8.35253906,16.0224609 8.12988281,16.2949219 8.12402344,16.5878906 L8.12402344,18.4921875 C8.12109375,18.6943359 8.21484375,18.8935547 8.37011719,19.0195312 C8.59570312,19.2099609 8.95019531,19.2275391 9.19335937,19.0576172 C9.37792969,18.9345703 9.49511719,18.7119141 9.4921875,18.4892578 L9.4921875,16.5908203 C9.48632812,16.3769531 9.37207031,16.1689453 9.19335937,16.0488281 C9.02929687,15.9433594 8.82421875,15.9082031 8.63671875,15.9550781 Z" id="形状" fill="#51B281"></path>
            </g>
        </g>
    </g>
</svg>